<svg width="400" height="225" viewBox="0 0 400 225" xmlns="http://www.w3.org/2000/svg">
  <defs>
    <linearGradient id="cityBg" x1="0%" y1="0%" x2="100%" y2="100%">
      <stop offset="0%" style="stop-color:#2196F3;stop-opacity:1" />
      <stop offset="100%" style="stop-color:#21CBF3;stop-opacity:1" />
    </linearGradient>
  </defs>
  
  <!-- Background sky -->
  <rect width="400" height="225" fill="url(#cityBg)"/>
  
  <!-- Buildings silhouette -->
  <rect x="0" y="120" width="60" height="105" fill="rgba(69,90,100,0.8)"/>
  <rect x="60" y="100" width="50" height="125" fill="rgba(84,110,122,0.8)"/>
  <rect x="110" y="80" width="40" height="145" fill="rgba(69,90,100,0.8)"/>
  <rect x="150" y="110" width="55" height="115" fill="rgba(96,125,139,0.8)"/>
  <rect x="205" y="70" width="45" height="155" fill="rgba(69,90,100,0.8)"/>
  <rect x="250" y="90" width="50" height="135" fill="rgba(84,110,122,0.8)"/>
  <rect x="300" y="105" width="40" height="120" fill="rgba(96,125,139,0.8)"/>
  <rect x="340" y="85" width="60" height="140" fill="rgba(69,90,100,0.8)"/>
  
  <!-- Windows -->
  <rect x="10" y="130" width="8" height="8" fill="rgba(255,241,118,0.7)"/>
  <rect x="25" y="140" width="8" height="8" fill="rgba(255,241,118,0.7)"/>
  <rect x="70" y="120" width="6" height="6" fill="rgba(255,241,118,0.7)"/>
  <rect x="85" y="130" width="6" height="6" fill="rgba(255,241,118,0.7)"/>
  <rect x="160" y="125" width="7" height="7" fill="rgba(255,241,118,0.7)"/>
  <rect x="180" y="135" width="7" height="7" fill="rgba(255,241,118,0.7)"/>
  
  <!-- Play button -->
  <circle cx="200" cy="112.5" r="35" fill="rgba(255,255,255,0.95)" stroke="rgba(255,255,255,1)" stroke-width="2"/>
  <polygon points="190,100 190,125 215,112.5" fill="#2196F3"/>
  
  <!-- Text -->
  <text x="200" y="200" text-anchor="middle" fill="rgba(255,255,255,0.95)" font-family="Arial, sans-serif" font-size="14" font-weight="bold" stroke="rgba(0,0,0,0.3)" stroke-width="1">🏙️ CITY LIFE</text>
</svg>