<svg width="400" height="225" viewBox="0 0 400 225" xmlns="http://www.w3.org/2000/svg">
  <defs>
    <linearGradient id="natureBg" x1="0%" y1="0%" x2="100%" y2="100%">
      <stop offset="0%" style="stop-color:#56ab2f;stop-opacity:1" />
      <stop offset="100%" style="stop-color:#a8e6cf;stop-opacity:1" />
    </linearGradient>
  </defs>
  
  <!-- Background -->
  <rect width="400" height="225" fill="url(#natureBg)"/>
  
  <!-- Mountains -->
  <polygon points="0,150 100,80 200,120 300,70 400,110 400,225 0,225" fill="rgba(76,175,80,0.7)"/>
  <polygon points="50,180 150,100 250,140 350,90 400,130 400,225 0,225" fill="rgba(129,199,132,0.8)"/>
  
  <!-- Sun -->
  <circle cx="330" cy="70" r="25" fill="rgba(255,241,118,0.9)"/>
  
  <!-- Trees -->
  <ellipse cx="80" cy="170" rx="15" ry="35" fill="rgba(46,125,50,0.8)"/>
  <ellipse cx="150" cy="160" rx="12" ry="30" fill="rgba(46,125,50,0.8)"/>
  <ellipse cx="320" cy="150" rx="18" ry="40" fill="rgba(46,125,50,0.8)"/>
  
  <!-- Play button -->
  <circle cx="200" cy="112.5" r="35" fill="rgba(255,255,255,0.95)" stroke="rgba(255,255,255,1)" stroke-width="2"/>
  <polygon points="190,100 190,125 215,112.5" fill="#56ab2f"/>
  
  <!-- Text -->
  <text x="200" y="200" text-anchor="middle" fill="rgba(255,255,255,0.95)" font-family="Arial, sans-serif" font-size="14" font-weight="bold" stroke="rgba(0,0,0,0.3)" stroke-width="1">🌿 NATURE VIDEO</text>
</svg>