<?xml version="1.0" encoding="UTF-8"?>
<svg width="200" height="60" viewBox="0 0 200 60" xmlns="http://www.w3.org/2000/svg">
  <defs>
    <linearGradient id="logoGradient" x1="0%" y1="0%" x2="100%" y2="100%">
      <stop offset="0%" style="stop-color:#667eea;stop-opacity:1" />
      <stop offset="100%" style="stop-color:#764ba2;stop-opacity:1" />
    </linearGradient>
  </defs>
  
  <!-- Background circle -->
  <circle cx="30" cy="30" r="25" fill="url(#logoGradient)" opacity="0.1"/>
  
  <!-- Main icon - chat/social symbol -->
  <g transform="translate(10,10)">
    <!-- Chat bubble 1 -->
    <path d="M15 8 Q8 8 8 15 Q8 22 15 22 L18 22 L22 26 L22 22 Q29 22 29 15 Q29 8 22 8 Z" fill="url(#logoGradient)" opacity="0.8"/>
    
    <!-- Chat bubble 2 -->
    <path d="M25 18 Q32 18 32 25 Q32 32 25 32 L22 32 L18 36 L18 32 Q11 32 11 25 Q11 18 18 18 Z" fill="url(#logoGradient)"/>
    
    <!-- Indian flag colors accent -->
    <rect x="35" y="12" width="2" height="4" fill="#ff9933"/>
    <rect x="35" y="16" width="2" height="4" fill="#ffffff" stroke="#ccc" stroke-width="0.5"/>
    <rect x="35" y="20" width="2" height="4" fill="#138808"/>
    <circle cx="36" cy="18" r="1" fill="#000080"/>
  </g>
  
  <!-- Text -->
  <text x="70" y="25" font-family="'Inter', -apple-system, BlinkMacSystemFont, sans-serif" font-size="20" font-weight="700" fill="url(#logoGradient)">GupShup</text>
  <text x="70" y="42" font-family="'Inter', -apple-system, BlinkMacSystemFont, sans-serif" font-size="10" fill="#6c757d">Connect with India</text>
</svg>